<mxfile host="Electron" modified="2024-02-19T13:51:36.494Z" agent="Mozilla/5.0 (Windows NT 10.0; Win64; x64) AppleWebKit/537.36 (KHTML, like Gecko) draw.io/23.1.5 Chrome/120.0.6099.109 Electron/28.1.0 Safari/537.36" etag="QVD5-Gi3nd1MIf6ddRtK" version="23.1.5" type="device">
  <diagram name="Page-1" id="u0XEVq04qdEN7g_LPaCo">
    <mxGraphModel dx="1195" dy="697" grid="1" gridSize="10" guides="1" tooltips="1" connect="1" arrows="1" fold="1" page="1" pageScale="1" pageWidth="850" pageHeight="1100" math="1" shadow="0">
      <root>
        <mxCell id="0" />
        <mxCell id="1" parent="0" />
        <mxCell id="7rltvQfId2yCLwZndJaO-114" value="" style="rounded=0;whiteSpace=wrap;html=1;strokeColor=none;" parent="1" vertex="1">
          <mxGeometry x="60" y="90" width="570" height="505" as="geometry" />
        </mxCell>
        <mxCell id="KcuDzsZJV5hjd9wzVcxd-1" style="edgeStyle=orthogonalEdgeStyle;rounded=0;orthogonalLoop=1;jettySize=auto;html=1;" edge="1" parent="1" source="7rltvQfId2yCLwZndJaO-55" target="7rltvQfId2yCLwZndJaO-85">
          <mxGeometry relative="1" as="geometry" />
        </mxCell>
        <mxCell id="KcuDzsZJV5hjd9wzVcxd-2" style="edgeStyle=orthogonalEdgeStyle;rounded=0;orthogonalLoop=1;jettySize=auto;html=1;" edge="1" parent="1" source="7rltvQfId2yCLwZndJaO-55" target="7rltvQfId2yCLwZndJaO-57">
          <mxGeometry relative="1" as="geometry" />
        </mxCell>
        <mxCell id="7rltvQfId2yCLwZndJaO-55" value="&lt;b&gt;&lt;font style=&quot;font-size: 20px;&quot; face=&quot;Times New Roman&quot;&gt;ACD&lt;/font&gt;&lt;/b&gt;" style="rounded=0;whiteSpace=wrap;html=1;verticalAlign=top;" parent="1" vertex="1">
          <mxGeometry x="80" y="105" width="230" height="470" as="geometry" />
        </mxCell>
        <mxCell id="7rltvQfId2yCLwZndJaO-32" value="&lt;b&gt;&lt;font face=&quot;Times New Roman&quot;&gt;HDP&lt;/font&gt;&lt;/b&gt;" style="rounded=1;whiteSpace=wrap;html=1;fillColor=#F7F9FC;strokeColor=#6c8ebf;horizontal=1;verticalAlign=top;dashed=1;" parent="1" vertex="1">
          <mxGeometry x="104.5" y="150" width="180" height="120" as="geometry" />
        </mxCell>
        <mxCell id="7rltvQfId2yCLwZndJaO-4" style="edgeStyle=orthogonalEdgeStyle;rounded=0;orthogonalLoop=1;jettySize=auto;html=1;labelBackgroundColor=none;" parent="1" edge="1">
          <mxGeometry relative="1" as="geometry">
            <mxPoint x="274" y="200" as="targetPoint" />
            <mxPoint x="234" y="200" as="sourcePoint" />
            <Array as="points">
              <mxPoint x="254.5" y="200" />
              <mxPoint x="254.5" y="200" />
            </Array>
          </mxGeometry>
        </mxCell>
        <mxCell id="7rltvQfId2yCLwZndJaO-12" value="$$u_t$$" style="edgeLabel;html=1;align=center;verticalAlign=middle;resizable=0;points=[];labelBackgroundColor=none;" parent="7rltvQfId2yCLwZndJaO-4" vertex="1" connectable="0">
          <mxGeometry x="-0.3087" relative="1" as="geometry">
            <mxPoint x="6" y="-10" as="offset" />
          </mxGeometry>
        </mxCell>
        <mxCell id="7rltvQfId2yCLwZndJaO-1" value="&lt;font face=&quot;Courier New&quot;&gt;Actor&lt;/font&gt;" style="rounded=0;whiteSpace=wrap;html=1;" parent="1" vertex="1">
          <mxGeometry x="155" y="185" width="80" height="30" as="geometry" />
        </mxCell>
        <mxCell id="7rltvQfId2yCLwZndJaO-3" value="$$x_t$$" style="endArrow=classic;html=1;rounded=0;labelBackgroundColor=none;" parent="1" target="7rltvQfId2yCLwZndJaO-1" edge="1">
          <mxGeometry y="10" width="50" height="50" relative="1" as="geometry">
            <mxPoint x="115" y="200" as="sourcePoint" />
            <mxPoint x="165" y="209.8" as="targetPoint" />
            <mxPoint as="offset" />
          </mxGeometry>
        </mxCell>
        <mxCell id="7rltvQfId2yCLwZndJaO-5" value="&lt;div&gt;&lt;br/&gt;&lt;/div&gt;" style="edgeLabel;html=1;align=center;verticalAlign=middle;resizable=0;points=[];" parent="7rltvQfId2yCLwZndJaO-3" vertex="1" connectable="0">
          <mxGeometry x="-0.4" y="1" relative="1" as="geometry">
            <mxPoint as="offset" />
          </mxGeometry>
        </mxCell>
        <mxCell id="7rltvQfId2yCLwZndJaO-13" style="edgeStyle=orthogonalEdgeStyle;rounded=0;orthogonalLoop=1;jettySize=auto;html=1;" parent="1" source="7rltvQfId2yCLwZndJaO-15" edge="1">
          <mxGeometry relative="1" as="geometry">
            <mxPoint x="274.5" y="240" as="targetPoint" />
          </mxGeometry>
        </mxCell>
        <mxCell id="7rltvQfId2yCLwZndJaO-14" value="$$V(x_t)$$" style="edgeLabel;html=1;align=center;verticalAlign=middle;resizable=0;points=[];labelBackgroundColor=none;" parent="7rltvQfId2yCLwZndJaO-13" vertex="1" connectable="0">
          <mxGeometry x="-0.3087" relative="1" as="geometry">
            <mxPoint x="6" y="-10" as="offset" />
          </mxGeometry>
        </mxCell>
        <mxCell id="7rltvQfId2yCLwZndJaO-15" value="&lt;font face=&quot;Courier New&quot;&gt;Critic&lt;/font&gt;" style="rounded=0;whiteSpace=wrap;html=1;" parent="1" vertex="1">
          <mxGeometry x="154.5" y="225" width="80" height="30" as="geometry" />
        </mxCell>
        <mxCell id="7rltvQfId2yCLwZndJaO-16" value="$$x_t$$" style="endArrow=classic;html=1;rounded=0;labelBackgroundColor=none;" parent="1" edge="1">
          <mxGeometry y="10" width="50" height="50" relative="1" as="geometry">
            <mxPoint x="114.5" y="240" as="sourcePoint" />
            <mxPoint x="154.5" y="240" as="targetPoint" />
            <mxPoint as="offset" />
          </mxGeometry>
        </mxCell>
        <mxCell id="7rltvQfId2yCLwZndJaO-17" value="&lt;div&gt;&lt;br/&gt;&lt;/div&gt;" style="edgeLabel;html=1;align=center;verticalAlign=middle;resizable=0;points=[];" parent="7rltvQfId2yCLwZndJaO-16" vertex="1" connectable="0">
          <mxGeometry x="-0.4" y="1" relative="1" as="geometry">
            <mxPoint as="offset" />
          </mxGeometry>
        </mxCell>
        <mxCell id="7rltvQfId2yCLwZndJaO-33" value="&lt;b&gt;&lt;font face=&quot;Times New Roman&quot;&gt;DHP&lt;/font&gt;&lt;/b&gt;" style="rounded=1;whiteSpace=wrap;html=1;fillColor=#F7F9FC;strokeColor=#6c8ebf;horizontal=1;verticalAlign=top;dashed=1;" parent="1" vertex="1">
          <mxGeometry x="104" y="290" width="180" height="120" as="geometry" />
        </mxCell>
        <mxCell id="7rltvQfId2yCLwZndJaO-34" style="edgeStyle=orthogonalEdgeStyle;rounded=0;orthogonalLoop=1;jettySize=auto;html=1;labelBackgroundColor=none;" parent="1" edge="1">
          <mxGeometry relative="1" as="geometry">
            <mxPoint x="273.5" y="340" as="targetPoint" />
            <mxPoint x="233.5" y="340" as="sourcePoint" />
            <Array as="points">
              <mxPoint x="254" y="340" />
              <mxPoint x="254" y="340" />
            </Array>
          </mxGeometry>
        </mxCell>
        <mxCell id="7rltvQfId2yCLwZndJaO-35" value="$$u_t$$" style="edgeLabel;html=1;align=center;verticalAlign=middle;resizable=0;points=[];labelBackgroundColor=none;" parent="7rltvQfId2yCLwZndJaO-34" vertex="1" connectable="0">
          <mxGeometry x="-0.3087" relative="1" as="geometry">
            <mxPoint x="6" y="-10" as="offset" />
          </mxGeometry>
        </mxCell>
        <mxCell id="7rltvQfId2yCLwZndJaO-36" value="&lt;font face=&quot;Courier New&quot;&gt;Actor&lt;/font&gt;" style="rounded=0;whiteSpace=wrap;html=1;" parent="1" vertex="1">
          <mxGeometry x="154.5" y="325" width="80" height="30" as="geometry" />
        </mxCell>
        <mxCell id="7rltvQfId2yCLwZndJaO-37" value="$$x_t$$" style="endArrow=classic;html=1;rounded=0;labelBackgroundColor=none;" parent="1" target="7rltvQfId2yCLwZndJaO-36" edge="1">
          <mxGeometry y="10" width="50" height="50" relative="1" as="geometry">
            <mxPoint x="114.5" y="340" as="sourcePoint" />
            <mxPoint x="164.5" y="349.8" as="targetPoint" />
            <mxPoint as="offset" />
          </mxGeometry>
        </mxCell>
        <mxCell id="7rltvQfId2yCLwZndJaO-38" value="&lt;div&gt;&lt;br/&gt;&lt;/div&gt;" style="edgeLabel;html=1;align=center;verticalAlign=middle;resizable=0;points=[];" parent="7rltvQfId2yCLwZndJaO-37" vertex="1" connectable="0">
          <mxGeometry x="-0.4" y="1" relative="1" as="geometry">
            <mxPoint as="offset" />
          </mxGeometry>
        </mxCell>
        <mxCell id="7rltvQfId2yCLwZndJaO-39" style="edgeStyle=orthogonalEdgeStyle;rounded=0;orthogonalLoop=1;jettySize=auto;html=1;" parent="1" source="7rltvQfId2yCLwZndJaO-41" edge="1">
          <mxGeometry relative="1" as="geometry">
            <mxPoint x="274" y="380" as="targetPoint" />
          </mxGeometry>
        </mxCell>
        <mxCell id="7rltvQfId2yCLwZndJaO-40" value="$$\lambda(x_t)$$" style="edgeLabel;html=1;align=center;verticalAlign=middle;resizable=0;points=[];labelBackgroundColor=none;" parent="7rltvQfId2yCLwZndJaO-39" vertex="1" connectable="0">
          <mxGeometry x="-0.3087" relative="1" as="geometry">
            <mxPoint x="6" y="-10" as="offset" />
          </mxGeometry>
        </mxCell>
        <mxCell id="7rltvQfId2yCLwZndJaO-41" value="&lt;font face=&quot;Courier New&quot;&gt;Critic&lt;/font&gt;" style="rounded=0;whiteSpace=wrap;html=1;" parent="1" vertex="1">
          <mxGeometry x="154" y="365" width="80" height="30" as="geometry" />
        </mxCell>
        <mxCell id="7rltvQfId2yCLwZndJaO-42" value="$$x_t$$" style="endArrow=classic;html=1;rounded=0;labelBackgroundColor=none;" parent="1" edge="1">
          <mxGeometry y="10" width="50" height="50" relative="1" as="geometry">
            <mxPoint x="114" y="380" as="sourcePoint" />
            <mxPoint x="154" y="380" as="targetPoint" />
            <mxPoint as="offset" />
          </mxGeometry>
        </mxCell>
        <mxCell id="7rltvQfId2yCLwZndJaO-43" value="&lt;div&gt;&lt;br/&gt;&lt;/div&gt;" style="edgeLabel;html=1;align=center;verticalAlign=middle;resizable=0;points=[];" parent="7rltvQfId2yCLwZndJaO-42" vertex="1" connectable="0">
          <mxGeometry x="-0.4" y="1" relative="1" as="geometry">
            <mxPoint as="offset" />
          </mxGeometry>
        </mxCell>
        <mxCell id="7rltvQfId2yCLwZndJaO-44" value="&lt;b&gt;&lt;font face=&quot;Times New Roman&quot;&gt;GDHP&lt;/font&gt;&lt;/b&gt;" style="rounded=1;whiteSpace=wrap;html=1;fillColor=#F7F9FC;strokeColor=#6c8ebf;horizontal=1;verticalAlign=top;dashed=1;" parent="1" vertex="1">
          <mxGeometry x="104.5" y="430" width="180" height="120" as="geometry" />
        </mxCell>
        <mxCell id="7rltvQfId2yCLwZndJaO-45" style="edgeStyle=orthogonalEdgeStyle;rounded=0;orthogonalLoop=1;jettySize=auto;html=1;labelBackgroundColor=none;" parent="1" edge="1">
          <mxGeometry relative="1" as="geometry">
            <mxPoint x="274" y="480" as="targetPoint" />
            <mxPoint x="234" y="480" as="sourcePoint" />
            <Array as="points">
              <mxPoint x="254.5" y="480" />
              <mxPoint x="254.5" y="480" />
            </Array>
          </mxGeometry>
        </mxCell>
        <mxCell id="7rltvQfId2yCLwZndJaO-46" value="$$u_t$$" style="edgeLabel;html=1;align=center;verticalAlign=middle;resizable=0;points=[];labelBackgroundColor=none;" parent="7rltvQfId2yCLwZndJaO-45" vertex="1" connectable="0">
          <mxGeometry x="-0.3087" relative="1" as="geometry">
            <mxPoint x="6" y="-10" as="offset" />
          </mxGeometry>
        </mxCell>
        <mxCell id="7rltvQfId2yCLwZndJaO-47" value="&lt;font face=&quot;Courier New&quot;&gt;Actor&lt;/font&gt;" style="rounded=0;whiteSpace=wrap;html=1;" parent="1" vertex="1">
          <mxGeometry x="155" y="465" width="80" height="30" as="geometry" />
        </mxCell>
        <mxCell id="7rltvQfId2yCLwZndJaO-48" value="$$x_t$$" style="endArrow=classic;html=1;rounded=0;labelBackgroundColor=none;" parent="1" target="7rltvQfId2yCLwZndJaO-47" edge="1">
          <mxGeometry y="10" width="50" height="50" relative="1" as="geometry">
            <mxPoint x="115" y="480" as="sourcePoint" />
            <mxPoint x="165" y="489.79999999999995" as="targetPoint" />
            <mxPoint as="offset" />
          </mxGeometry>
        </mxCell>
        <mxCell id="7rltvQfId2yCLwZndJaO-49" value="&lt;div&gt;&lt;br/&gt;&lt;/div&gt;" style="edgeLabel;html=1;align=center;verticalAlign=middle;resizable=0;points=[];" parent="7rltvQfId2yCLwZndJaO-48" vertex="1" connectable="0">
          <mxGeometry x="-0.4" y="1" relative="1" as="geometry">
            <mxPoint as="offset" />
          </mxGeometry>
        </mxCell>
        <mxCell id="7rltvQfId2yCLwZndJaO-50" style="edgeStyle=orthogonalEdgeStyle;rounded=0;orthogonalLoop=1;jettySize=auto;html=1;" parent="1" source="7rltvQfId2yCLwZndJaO-52" edge="1">
          <mxGeometry relative="1" as="geometry">
            <mxPoint x="274.5" y="520" as="targetPoint" />
          </mxGeometry>
        </mxCell>
        <mxCell id="7rltvQfId2yCLwZndJaO-51" value="&lt;font style=&quot;font-size: 7px;&quot;&gt;$$V(x_t), \lambda(x_t)$$&lt;/font&gt;" style="edgeLabel;html=1;align=center;verticalAlign=middle;resizable=0;points=[];labelBackgroundColor=none;fontSize=7;" parent="7rltvQfId2yCLwZndJaO-50" vertex="1" connectable="0">
          <mxGeometry x="-0.3087" relative="1" as="geometry">
            <mxPoint x="11" y="-10" as="offset" />
          </mxGeometry>
        </mxCell>
        <mxCell id="7rltvQfId2yCLwZndJaO-52" value="&lt;font face=&quot;Courier New&quot;&gt;Critic&lt;/font&gt;" style="rounded=0;whiteSpace=wrap;html=1;" parent="1" vertex="1">
          <mxGeometry x="154.5" y="505" width="80" height="30" as="geometry" />
        </mxCell>
        <mxCell id="7rltvQfId2yCLwZndJaO-53" value="$$x_t$$" style="endArrow=classic;html=1;rounded=0;labelBackgroundColor=none;" parent="1" edge="1">
          <mxGeometry y="10" width="50" height="50" relative="1" as="geometry">
            <mxPoint x="114.5" y="520" as="sourcePoint" />
            <mxPoint x="154.5" y="520" as="targetPoint" />
            <mxPoint as="offset" />
          </mxGeometry>
        </mxCell>
        <mxCell id="7rltvQfId2yCLwZndJaO-54" value="&lt;div&gt;&lt;br/&gt;&lt;/div&gt;" style="edgeLabel;html=1;align=center;verticalAlign=middle;resizable=0;points=[];" parent="7rltvQfId2yCLwZndJaO-53" vertex="1" connectable="0">
          <mxGeometry x="-0.4" y="1" relative="1" as="geometry">
            <mxPoint as="offset" />
          </mxGeometry>
        </mxCell>
        <mxCell id="7rltvQfId2yCLwZndJaO-57" value="&lt;b&gt;&lt;font style=&quot;font-size: 20px;&quot; face=&quot;Times New Roman&quot;&gt;AD-&lt;/font&gt;&lt;/b&gt;" style="rounded=0;whiteSpace=wrap;html=1;verticalAlign=top;" parent="1" vertex="1">
          <mxGeometry x="385" y="110" width="230" height="180" as="geometry" />
        </mxCell>
        <mxCell id="7rltvQfId2yCLwZndJaO-58" value="" style="rounded=1;whiteSpace=wrap;html=1;fillColor=#F7F9FC;strokeColor=#6c8ebf;horizontal=1;verticalAlign=top;dashed=1;" parent="1" vertex="1">
          <mxGeometry x="395" y="150" width="210" height="120" as="geometry" />
        </mxCell>
        <mxCell id="7rltvQfId2yCLwZndJaO-59" style="edgeStyle=orthogonalEdgeStyle;rounded=0;orthogonalLoop=1;jettySize=auto;html=1;labelBackgroundColor=none;" parent="1" edge="1">
          <mxGeometry relative="1" as="geometry">
            <mxPoint x="579.5" y="180" as="targetPoint" />
            <mxPoint x="539.5" y="180" as="sourcePoint" />
            <Array as="points">
              <mxPoint x="560" y="180" />
              <mxPoint x="560" y="180" />
            </Array>
          </mxGeometry>
        </mxCell>
        <mxCell id="7rltvQfId2yCLwZndJaO-60" value="$$u_t$$" style="edgeLabel;html=1;align=center;verticalAlign=middle;resizable=0;points=[];labelBackgroundColor=none;" parent="7rltvQfId2yCLwZndJaO-59" vertex="1" connectable="0">
          <mxGeometry x="-0.3087" relative="1" as="geometry">
            <mxPoint x="6" y="-10" as="offset" />
          </mxGeometry>
        </mxCell>
        <mxCell id="7rltvQfId2yCLwZndJaO-61" value="&lt;font face=&quot;Courier New&quot;&gt;Actor&lt;/font&gt;" style="rounded=0;whiteSpace=wrap;html=1;" parent="1" vertex="1">
          <mxGeometry x="460.5" y="165" width="80" height="30" as="geometry" />
        </mxCell>
        <mxCell id="7rltvQfId2yCLwZndJaO-62" value="$$x_t$$" style="endArrow=classic;html=1;rounded=0;labelBackgroundColor=none;" parent="1" target="7rltvQfId2yCLwZndJaO-61" edge="1">
          <mxGeometry y="10" width="50" height="50" relative="1" as="geometry">
            <mxPoint x="420.5" y="180" as="sourcePoint" />
            <mxPoint x="470.5" y="189.8" as="targetPoint" />
            <mxPoint as="offset" />
          </mxGeometry>
        </mxCell>
        <mxCell id="7rltvQfId2yCLwZndJaO-63" value="&lt;div&gt;&lt;br/&gt;&lt;/div&gt;" style="edgeLabel;html=1;align=center;verticalAlign=middle;resizable=0;points=[];" parent="7rltvQfId2yCLwZndJaO-62" vertex="1" connectable="0">
          <mxGeometry x="-0.4" y="1" relative="1" as="geometry">
            <mxPoint as="offset" />
          </mxGeometry>
        </mxCell>
        <mxCell id="7rltvQfId2yCLwZndJaO-64" style="edgeStyle=orthogonalEdgeStyle;rounded=0;orthogonalLoop=1;jettySize=auto;html=1;" parent="1" source="7rltvQfId2yCLwZndJaO-66" edge="1">
          <mxGeometry relative="1" as="geometry">
            <mxPoint x="580.5" y="245" as="targetPoint" />
          </mxGeometry>
        </mxCell>
        <mxCell id="7rltvQfId2yCLwZndJaO-65" value="$$V(x_t)$$" style="edgeLabel;html=1;align=center;verticalAlign=middle;resizable=0;points=[];labelBackgroundColor=none;" parent="7rltvQfId2yCLwZndJaO-64" vertex="1" connectable="0">
          <mxGeometry x="-0.3087" relative="1" as="geometry">
            <mxPoint x="6" y="-10" as="offset" />
          </mxGeometry>
        </mxCell>
        <mxCell id="7rltvQfId2yCLwZndJaO-66" value="&lt;font face=&quot;Courier New&quot;&gt;Critic&lt;/font&gt;" style="rounded=0;whiteSpace=wrap;html=1;" parent="1" vertex="1">
          <mxGeometry x="460.5" y="230" width="80" height="30" as="geometry" />
        </mxCell>
        <mxCell id="7rltvQfId2yCLwZndJaO-70" style="edgeStyle=orthogonalEdgeStyle;rounded=0;orthogonalLoop=1;jettySize=auto;html=1;entryX=0;entryY=0.5;entryDx=0;entryDy=0;" parent="1" source="7rltvQfId2yCLwZndJaO-61" target="7rltvQfId2yCLwZndJaO-66" edge="1">
          <mxGeometry relative="1" as="geometry">
            <Array as="points">
              <mxPoint x="555" y="180" />
              <mxPoint x="555" y="215" />
              <mxPoint x="440" y="215" />
              <mxPoint x="440" y="245" />
            </Array>
          </mxGeometry>
        </mxCell>
        <mxCell id="7rltvQfId2yCLwZndJaO-67" value="$$x_t$$" style="endArrow=classic;html=1;rounded=0;labelBackgroundColor=none;" parent="1" edge="1">
          <mxGeometry x="-0.775" y="15" width="50" height="50" relative="1" as="geometry">
            <mxPoint x="420.5" y="245" as="sourcePoint" />
            <mxPoint x="460.5" y="245" as="targetPoint" />
            <mxPoint as="offset" />
          </mxGeometry>
        </mxCell>
        <mxCell id="7rltvQfId2yCLwZndJaO-68" value="&lt;div&gt;&lt;br/&gt;&lt;/div&gt;" style="edgeLabel;html=1;align=center;verticalAlign=middle;resizable=0;points=[];" parent="7rltvQfId2yCLwZndJaO-67" vertex="1" connectable="0">
          <mxGeometry x="-0.4" y="1" relative="1" as="geometry">
            <mxPoint as="offset" />
          </mxGeometry>
        </mxCell>
        <mxCell id="7rltvQfId2yCLwZndJaO-85" value="&lt;b&gt;&lt;font style=&quot;font-size: 20px;&quot; face=&quot;Times New Roman&quot;&gt;I-&lt;/font&gt;&lt;/b&gt;" style="rounded=0;whiteSpace=wrap;html=1;verticalAlign=top;" parent="1" vertex="1">
          <mxGeometry x="385.5" y="365" width="230" height="210" as="geometry" />
        </mxCell>
        <mxCell id="7rltvQfId2yCLwZndJaO-86" value="" style="rounded=1;whiteSpace=wrap;html=1;fillColor=#F7F9FC;strokeColor=#6c8ebf;horizontal=1;verticalAlign=top;dashed=1;" parent="1" vertex="1">
          <mxGeometry x="395.5" y="405" width="210" height="150" as="geometry" />
        </mxCell>
        <mxCell id="7rltvQfId2yCLwZndJaO-87" style="edgeStyle=orthogonalEdgeStyle;rounded=0;orthogonalLoop=1;jettySize=auto;html=1;labelBackgroundColor=none;" parent="1" edge="1">
          <mxGeometry relative="1" as="geometry">
            <mxPoint x="598" y="436.5" as="targetPoint" />
            <mxPoint x="558" y="436.5" as="sourcePoint" />
            <Array as="points">
              <mxPoint x="578.5" y="436.5" />
              <mxPoint x="578.5" y="436.5" />
            </Array>
          </mxGeometry>
        </mxCell>
        <mxCell id="7rltvQfId2yCLwZndJaO-88" value="$$u_t$$" style="edgeLabel;html=1;align=center;verticalAlign=middle;resizable=0;points=[];labelBackgroundColor=none;" parent="7rltvQfId2yCLwZndJaO-87" vertex="1" connectable="0">
          <mxGeometry x="-0.3087" relative="1" as="geometry">
            <mxPoint x="6" y="-10" as="offset" />
          </mxGeometry>
        </mxCell>
        <mxCell id="7rltvQfId2yCLwZndJaO-90" value="&lt;font face=&quot;Courier New&quot;&gt;Actor&lt;/font&gt;" style="rounded=0;whiteSpace=wrap;html=1;" parent="1" vertex="1">
          <mxGeometry x="479" y="421.5" width="80" height="30" as="geometry" />
        </mxCell>
        <mxCell id="7rltvQfId2yCLwZndJaO-91" value="$$x_t$$" style="endArrow=classic;html=1;rounded=0;labelBackgroundColor=none;" parent="1" target="7rltvQfId2yCLwZndJaO-90" edge="1">
          <mxGeometry y="10" width="50" height="50" relative="1" as="geometry">
            <mxPoint x="403" y="436.5" as="sourcePoint" />
            <mxPoint x="489" y="446.3" as="targetPoint" />
            <mxPoint as="offset" />
          </mxGeometry>
        </mxCell>
        <mxCell id="7rltvQfId2yCLwZndJaO-92" value="&lt;div&gt;&lt;br/&gt;&lt;/div&gt;" style="edgeLabel;html=1;align=center;verticalAlign=middle;resizable=0;points=[];" parent="7rltvQfId2yCLwZndJaO-91" vertex="1" connectable="0">
          <mxGeometry x="-0.4" y="1" relative="1" as="geometry">
            <mxPoint as="offset" />
          </mxGeometry>
        </mxCell>
        <mxCell id="7rltvQfId2yCLwZndJaO-93" style="edgeStyle=orthogonalEdgeStyle;rounded=0;orthogonalLoop=1;jettySize=auto;html=1;" parent="1" source="7rltvQfId2yCLwZndJaO-95" edge="1">
          <mxGeometry relative="1" as="geometry">
            <mxPoint x="599" y="520" as="targetPoint" />
          </mxGeometry>
        </mxCell>
        <mxCell id="7rltvQfId2yCLwZndJaO-94" value="$$V(x_t)$$" style="edgeLabel;html=1;align=center;verticalAlign=middle;resizable=0;points=[];labelBackgroundColor=none;" parent="7rltvQfId2yCLwZndJaO-93" vertex="1" connectable="0">
          <mxGeometry x="-0.3087" relative="1" as="geometry">
            <mxPoint x="6" y="-10" as="offset" />
          </mxGeometry>
        </mxCell>
        <mxCell id="7rltvQfId2yCLwZndJaO-95" value="&lt;font face=&quot;Courier New&quot;&gt;Critic&lt;/font&gt;" style="rounded=0;whiteSpace=wrap;html=1;" parent="1" vertex="1">
          <mxGeometry x="479" y="505" width="80" height="30" as="geometry" />
        </mxCell>
        <mxCell id="7rltvQfId2yCLwZndJaO-98" value="$$x_t$$" style="endArrow=classic;html=1;rounded=0;labelBackgroundColor=none;" parent="1" edge="1">
          <mxGeometry y="10" width="50" height="50" relative="1" as="geometry">
            <mxPoint x="403" y="519.5" as="sourcePoint" />
            <mxPoint x="479.5" y="519.89" as="targetPoint" />
            <mxPoint as="offset" />
          </mxGeometry>
        </mxCell>
        <mxCell id="7rltvQfId2yCLwZndJaO-99" value="&lt;div&gt;&lt;br/&gt;&lt;/div&gt;" style="edgeLabel;html=1;align=center;verticalAlign=middle;resizable=0;points=[];" parent="7rltvQfId2yCLwZndJaO-98" vertex="1" connectable="0">
          <mxGeometry x="-0.4" y="1" relative="1" as="geometry">
            <mxPoint as="offset" />
          </mxGeometry>
        </mxCell>
        <mxCell id="7rltvQfId2yCLwZndJaO-102" value="&lt;font face=&quot;Courier New&quot;&gt;RLS&lt;/font&gt;" style="rounded=0;whiteSpace=wrap;html=1;" parent="1" vertex="1">
          <mxGeometry x="429" y="462.5" width="50" height="30" as="geometry" />
        </mxCell>
        <mxCell id="7rltvQfId2yCLwZndJaO-103" value="$$x_t$$" style="endArrow=classic;html=1;rounded=0;labelBackgroundColor=none;" parent="1" edge="1">
          <mxGeometry y="10" width="50" height="50" relative="1" as="geometry">
            <mxPoint x="403" y="477.5" as="sourcePoint" />
            <mxPoint x="429" y="477.3" as="targetPoint" />
            <mxPoint as="offset" />
          </mxGeometry>
        </mxCell>
        <mxCell id="7rltvQfId2yCLwZndJaO-104" value="&lt;div&gt;&lt;br/&gt;&lt;/div&gt;" style="edgeLabel;html=1;align=center;verticalAlign=middle;resizable=0;points=[];" parent="7rltvQfId2yCLwZndJaO-103" vertex="1" connectable="0">
          <mxGeometry x="-0.4" y="1" relative="1" as="geometry">
            <mxPoint as="offset" />
          </mxGeometry>
        </mxCell>
        <mxCell id="7rltvQfId2yCLwZndJaO-109" value="" style="endArrow=classic;html=1;rounded=0;dashed=1;exitX=1;exitY=0.5;exitDx=0;exitDy=0;strokeColor=#4D4D4D;" parent="1" source="7rltvQfId2yCLwZndJaO-102" edge="1">
          <mxGeometry width="50" height="50" relative="1" as="geometry">
            <mxPoint x="543" y="482.5" as="sourcePoint" />
            <mxPoint x="543" y="412.5" as="targetPoint" />
            <Array as="points">
              <mxPoint x="503" y="477.5" />
              <mxPoint x="503" y="462.5" />
            </Array>
          </mxGeometry>
        </mxCell>
        <mxCell id="7rltvQfId2yCLwZndJaO-110" value="" style="endArrow=classic;html=1;rounded=0;exitX=1;exitY=0.5;exitDx=0;exitDy=0;dashed=1;strokeColor=#4D4D4D;" parent="1" source="7rltvQfId2yCLwZndJaO-102" edge="1">
          <mxGeometry width="50" height="50" relative="1" as="geometry">
            <mxPoint x="543" y="492.5" as="sourcePoint" />
            <mxPoint x="543" y="542.5" as="targetPoint" />
            <Array as="points">
              <mxPoint x="503" y="477.5" />
              <mxPoint x="503" y="492.5" />
            </Array>
          </mxGeometry>
        </mxCell>
      </root>
    </mxGraphModel>
  </diagram>
</mxfile>
